<svg width="40" height="36" viewBox="0 0 40 36" fill="none" xmlns="http://www.w3.org/2000/svg">
<path d="M32.7835 17.9929C33.7378 17.9929 34.5182 18.7661 34.4228 19.7156C34.0966 22.965 32.855 26.0552 30.8422 28.6269C28.8295 31.1987 26.1282 33.1464 23.0523 34.2437C19.9764 35.3411 16.6523 35.543 13.4662 34.8259C10.2801 34.1089 7.36297 32.5025 5.05373 30.1932C2.7445 27.884 1.13802 24.9668 0.42101 21.7808C-0.296002 18.5947 -0.0941053 15.2705 1.00323 12.1947C2.10058 9.1188 4.0483 6.41751 6.62004 4.40472C9.19178 2.39194 12.2819 1.15033 15.5314 0.824188C16.4797 0.727545 17.254 1.51036 17.254 2.4623V16.2666C17.254 17.221 18.0272 17.9929 18.9803 17.9929H32.7835Z" fill="white"/>
<path d="M37.8757 5.77981C36.9367 4.84074 35.663 4.31317 34.335 4.31317H25.99C24.662 4.31317 23.3883 4.84074 22.4492 5.77981C21.5102 6.71888 20.9826 7.99254 20.9826 9.32059C20.9826 10.6486 21.5102 11.9223 22.4492 12.8614C23.3883 13.8005 24.662 14.328 25.99 14.328H34.335C35.663 14.328 36.9367 13.8005 37.8757 12.8614C38.8148 11.9223 39.3424 10.6486 39.3424 9.32059C39.3424 7.99254 38.8148 6.71888 37.8757 5.77981Z" fill="url(#paint0_linear_1_140)"/>
<path d="M37.8757 5.77981C36.9367 4.84074 35.663 4.31317 34.335 4.31317H25.99C24.662 4.31317 23.3883 4.84074 22.4492 5.77981C21.5102 6.71888 20.9826 7.99254 20.9826 9.32059C20.9826 10.6486 21.5102 11.9223 22.4492 12.8614C23.3883 13.8005 24.662 14.328 25.99 14.328H34.335C35.663 14.328 36.9367 13.8005 37.8757 12.8614C38.8148 11.9223 39.3424 10.6486 39.3424 9.32059C39.3424 7.99254 38.8148 6.71888 37.8757 5.77981Z" fill="url(#paint1_linear_1_140)"/>
<path d="M37.8757 5.77981C36.9367 4.84074 35.663 4.31317 34.335 4.31317H25.99C24.662 4.31317 23.3883 4.84074 22.4492 5.77981C21.5102 6.71888 20.9826 7.99254 20.9826 9.32059C20.9826 10.6486 21.5102 11.9223 22.4492 12.8614C23.3883 13.8005 24.662 14.328 25.99 14.328H34.335C35.663 14.328 36.9367 13.8005 37.8757 12.8614C38.8148 11.9223 39.3424 10.6486 39.3424 9.32059C39.3424 7.99254 38.8148 6.71888 37.8757 5.77981Z" fill="white"/>
<defs>
<linearGradient id="paint0_linear_1_140" x1="-57.3844" y1="-13.7182" x2="81.6782" y2="-13.7182" gradientUnits="userSpaceOnUse">
<stop stop-color="#64C2DB"/>
<stop offset="0.307" stop-color="#7476ED"/>
<stop offset="0.604" stop-color="#C994DF"/>
<stop offset="1" stop-color="#E56F8C"/>
</linearGradient>
<linearGradient id="paint1_linear_1_140" x1="20.9823" y1="9.93518" x2="97.6394" y2="9.93518" gradientUnits="userSpaceOnUse">
<stop stop-color="#64C2DB"/>
<stop offset="0.307" stop-color="#7476ED"/>
<stop offset="0.604" stop-color="#C994DF"/>
<stop offset="1" stop-color="#E56F8C"/>
</linearGradient>
</defs>
</svg>
