<svg width="20" height="21" viewBox="0 0 20 21" fill="none" xmlns="http://www.w3.org/2000/svg">
<g clip-path="url(#clip0_3_255)">
<path d="M19.5032 11.0302C19.5032 10.2153 19.4371 9.62062 19.294 9.00394H9.98862V12.682H15.4507C15.3406 13.596 14.7459 14.9726 13.4244 15.8976L13.4059 16.0207L16.3481 18.3L16.5519 18.3203C18.424 16.5914 19.5032 14.0475 19.5032 11.0302Z" fill="#4285F4"/>
<path d="M9.98862 20.721C12.6646 20.721 14.911 19.84 16.5519 18.3203L13.4244 15.8976C12.5875 16.4812 11.4642 16.8887 9.98862 16.8887C7.36771 16.8887 5.14324 15.1598 4.35028 12.7701L4.23405 12.78L1.17472 15.1477L1.13471 15.2589C2.76452 18.4965 6.11226 20.721 9.98862 20.721Z" fill="#34A853"/>
<path d="M4.35023 12.7701C4.141 12.1534 4.01992 11.4927 4.01992 10.8099C4.01992 10.1271 4.141 9.46641 4.33923 8.84973L4.33368 8.71839L1.23601 6.31271L1.13466 6.36092C0.462943 7.70444 0.0775089 9.21315 0.0775089 10.8099C0.0775089 12.4067 0.462943 13.9153 1.13466 15.2589L4.35023 12.7701Z" fill="#FBBC05"/>
<path d="M9.98862 4.73112C11.8497 4.73112 13.105 5.53501 13.8209 6.2068L16.618 3.47574C14.9001 1.87896 12.6646 0.898865 9.98862 0.898865C6.11226 0.898865 2.76452 3.12333 1.13471 6.36092L4.33928 8.84973C5.14325 6.46007 7.36771 4.73112 9.98862 4.73112Z" fill="#EB4335"/>
</g>
<defs>
<clipPath id="clip0_3_255">
<rect width="19.4257" height="19.8789" fill="white" transform="translate(0.0774803 0.870468)"/>
</clipPath>
</defs>
</svg>
