<svg width="36" height="33" viewBox="0 0 36 33" fill="none" xmlns="http://www.w3.org/2000/svg">
<path d="M29.9732 16.5934C30.8458 16.5934 31.5593 17.3002 31.472 18.1684C31.1738 21.1392 30.0387 23.9645 28.1984 26.3158C26.3582 28.6671 23.8884 30.4478 21.0762 31.4511C18.264 32.4544 15.2248 32.639 12.3119 31.9834C9.39891 31.3279 6.73181 29.8591 4.62052 27.7478C2.50924 25.6365 1.04047 22.9694 0.38492 20.0565C-0.270628 17.1435 -0.0860385 14.1043 0.917237 11.2921C1.92051 8.47993 3.70127 6.01019 6.05256 4.16995C8.40385 2.3297 11.2291 1.19452 14.2 0.89634C15.067 0.807981 15.775 1.52369 15.775 2.39403V15.015C15.775 15.8876 16.4819 16.5934 17.3533 16.5934H29.9732Z" fill="#33A4BB"/>
<path d="M34.629 5.42719C33.7704 4.56861 32.6059 4.08627 31.3917 4.08627H23.7621C22.5479 4.08627 21.3834 4.56861 20.5248 5.42719C19.6663 6.28576 19.1839 7.45024 19.1839 8.66445C19.1839 9.87866 19.6663 11.0431 20.5248 11.9017C21.3834 12.7603 22.5479 13.2426 23.7621 13.2426H31.3917C32.6059 13.2426 33.7704 12.7603 34.629 11.9017C35.4875 11.0431 35.9699 9.87866 35.9699 8.66445C35.9699 7.45024 35.4875 6.28576 34.629 5.42719Z" fill="url(#paint0_linear_1_131)"/>
<path d="M34.629 5.42719C33.7704 4.56861 32.6059 4.08627 31.3917 4.08627H23.7621C22.5479 4.08627 21.3834 4.56861 20.5248 5.42719C19.6663 6.28576 19.1839 7.45024 19.1839 8.66445C19.1839 9.87866 19.6663 11.0431 20.5248 11.9017C21.3834 12.7603 22.5479 13.2426 23.7621 13.2426H31.3917C32.6059 13.2426 33.7704 12.7603 34.629 11.9017C35.4875 11.0431 35.9699 9.87866 35.9699 8.66445C35.9699 7.45024 35.4875 6.28576 34.629 5.42719Z" fill="url(#paint1_linear_1_131)"/>
<path d="M34.629 5.42719C33.7704 4.56861 32.6059 4.08627 31.3917 4.08627H23.7621C22.5479 4.08627 21.3834 4.56861 20.5248 5.42719C19.6663 6.28576 19.1839 7.45024 19.1839 8.66445C19.1839 9.87866 19.6663 11.0431 20.5248 11.9017C21.3834 12.7603 22.5479 13.2426 23.7621 13.2426H31.3917C32.6059 13.2426 33.7704 12.7603 34.629 11.9017C35.4875 11.0431 35.9699 9.87866 35.9699 8.66445C35.9699 7.45024 35.4875 6.28576 34.629 5.42719Z" fill="#33A4BB"/>
<defs>
<linearGradient id="paint0_linear_1_131" x1="-52.4654" y1="-12.3995" x2="74.6766" y2="-12.3995" gradientUnits="userSpaceOnUse">
<stop stop-color="#64C2DB"/>
<stop offset="0.307" stop-color="#7476ED"/>
<stop offset="0.604" stop-color="#C994DF"/>
<stop offset="1" stop-color="#E56F8C"/>
</linearGradient>
<linearGradient id="paint1_linear_1_131" x1="19.1837" y1="9.22636" x2="89.2696" y2="9.22636" gradientUnits="userSpaceOnUse">
<stop stop-color="#64C2DB"/>
<stop offset="0.307" stop-color="#7476ED"/>
<stop offset="0.604" stop-color="#C994DF"/>
<stop offset="1" stop-color="#E56F8C"/>
</linearGradient>
</defs>
</svg>
