<svg width="26" height="23" viewBox="0 0 26 23" fill="none" xmlns="http://www.w3.org/2000/svg">
<path d="M21.2168 11.1165C21.8344 11.1165 22.3395 11.6169 22.2777 12.2314C22.0667 14.3343 21.2631 16.3342 19.9605 17.9986C18.6578 19.663 16.9096 20.9235 14.919 21.6337C12.9283 22.3439 10.777 22.4745 8.71506 22.0105C6.6531 21.5464 4.76517 20.5068 3.27067 19.0123C1.77618 17.5178 0.736504 15.6299 0.272469 13.5679C-0.191566 11.5059 -0.0609031 9.35463 0.649273 7.36398C1.35945 5.37334 2.61998 3.62512 4.28435 2.32248C5.94873 1.01985 7.94862 0.216306 10.0516 0.00523379C10.6653 -0.057312 11.1665 0.449309 11.1665 1.06539V9.99927C11.1665 10.6169 11.6668 11.1165 12.2837 11.1165H21.2168Z" fill="#33A4BB"/>
<path d="M24.5124 3.21242C23.9047 2.60467 23.0804 2.26324 22.2209 2.26324H16.8202C15.9607 2.26324 15.1364 2.60467 14.5287 3.21242C13.9209 3.82017 13.5795 4.64446 13.5795 5.50395C13.5795 6.36343 13.9209 7.18772 14.5287 7.79547C15.1364 8.40322 15.9607 8.74465 16.8202 8.74465H22.2209C23.0804 8.74465 23.9047 8.40322 24.5124 7.79547C25.1202 7.18772 25.4616 6.36343 25.4616 5.50395C25.4616 4.64446 25.1202 3.82017 24.5124 3.21242Z" fill="url(#paint0_linear_3_244)"/>
<path d="M24.5124 3.21242C23.9047 2.60467 23.0804 2.26324 22.2209 2.26324H16.8202C15.9607 2.26324 15.1364 2.60467 14.5287 3.21242C13.9209 3.82017 13.5795 4.64446 13.5795 5.50395C13.5795 6.36343 13.9209 7.18772 14.5287 7.79547C15.1364 8.40322 15.9607 8.74465 16.8202 8.74465H22.2209C23.0804 8.74465 23.9047 8.40322 24.5124 7.79547C25.1202 7.18772 25.4616 6.36343 25.4616 5.50395C25.4616 4.64446 25.1202 3.82017 24.5124 3.21242Z" fill="url(#paint1_linear_3_244)"/>
<path d="M24.5124 3.21242C23.9047 2.60467 23.0804 2.26324 22.2209 2.26324H16.8202C15.9607 2.26324 15.1364 2.60467 14.5287 3.21242C13.9209 3.82017 13.5795 4.64446 13.5795 5.50395C13.5795 6.36343 13.9209 7.18772 14.5287 7.79547C15.1364 8.40322 15.9607 8.74465 16.8202 8.74465H22.2209C23.0804 8.74465 23.9047 8.40322 24.5124 7.79547C25.1202 7.18772 25.4616 6.36343 25.4616 5.50395C25.4616 4.64446 25.1202 3.82017 24.5124 3.21242Z" fill="#33A4BB"/>
<defs>
<linearGradient id="paint0_linear_3_244" x1="-37.1381" y1="-9.40632" x2="52.8605" y2="-9.40632" gradientUnits="userSpaceOnUse">
<stop stop-color="#64C2DB"/>
<stop offset="0.307" stop-color="#7476ED"/>
<stop offset="0.604" stop-color="#C994DF"/>
<stop offset="1" stop-color="#E56F8C"/>
</linearGradient>
<linearGradient id="paint1_linear_3_244" x1="13.5793" y1="5.90169" x2="63.1902" y2="5.90169" gradientUnits="userSpaceOnUse">
<stop stop-color="#64C2DB"/>
<stop offset="0.307" stop-color="#7476ED"/>
<stop offset="0.604" stop-color="#C994DF"/>
<stop offset="1" stop-color="#E56F8C"/>
</linearGradient>
</defs>
</svg>
