<svg width="412" height="56" viewBox="0 0 412 56" fill="none" xmlns="http://www.w3.org/2000/svg">
<path d="M51.477 28.0206C51.477 25.4742 52.0456 23.1997 53.1828 21.1972C54.3448 19.1699 55.9147 17.6 57.8925 16.4875C59.895 15.3502 62.1324 14.7816 64.6047 14.7816C67.4972 14.7816 70.0313 15.5233 72.2069 17.0067C74.3825 18.49 75.9029 20.542 76.7682 23.1626H70.7977C70.2044 21.9265 69.3638 20.9994 68.276 20.3813C67.2129 19.7632 65.9768 19.4542 64.5676 19.4542C63.0595 19.4542 61.7121 19.8127 60.5254 20.5296C59.3635 21.2219 58.4487 22.2108 57.7812 23.4964C57.1384 24.7819 56.817 26.29 56.817 28.0206C56.817 29.7265 57.1384 31.2346 57.7812 32.5449C58.4487 33.8304 59.3635 34.8317 60.5254 35.5487C61.7121 36.2409 63.0595 36.587 64.5676 36.587C65.9768 36.587 67.2129 36.278 68.276 35.6599C69.3638 35.0171 70.2044 34.0777 70.7977 32.8415H76.7682C75.9029 35.4868 74.3825 37.5512 72.2069 39.0345C70.056 40.4932 67.522 41.2225 64.6047 41.2225C62.1324 41.2225 59.895 40.6662 57.8925 39.5537C55.9147 38.4165 54.3448 36.8466 53.1828 34.8441C52.0456 32.8415 51.477 30.567 51.477 28.0206ZM88.1003 41.3338C86.1225 41.3338 84.3424 40.9011 82.7602 40.0358C81.1779 39.1458 79.9294 37.8973 79.0147 36.2903C78.1247 34.6834 77.6797 32.8292 77.6797 30.7277C77.6797 28.6263 78.1371 26.7721 79.0518 25.1651C79.9913 23.5582 81.2645 22.322 82.8714 21.4567C84.4784 20.5667 86.2708 20.1217 88.2486 20.1217C90.2264 20.1217 92.0188 20.5667 93.6258 21.4567C95.2328 22.322 96.4936 23.5582 97.4084 25.1651C98.3478 26.7721 98.8176 28.6263 98.8176 30.7277C98.8176 32.8292 98.3355 34.6834 97.3713 36.2903C96.4318 37.8973 95.1462 39.1458 93.5145 40.0358C91.9076 40.9011 90.1028 41.3338 88.1003 41.3338ZM88.1003 36.8095C89.0397 36.8095 89.9174 36.587 90.7332 36.142C91.5738 35.6723 92.2413 34.98 92.7358 34.0653C93.2302 33.1506 93.4775 32.038 93.4775 30.7277C93.4775 28.7746 92.9583 27.2789 91.9199 26.2406C90.9063 25.1775 89.6578 24.646 88.1744 24.646C86.6911 24.646 85.4426 25.1775 84.429 26.2406C83.4401 27.2789 82.9456 28.7746 82.9456 30.7277C82.9456 32.6808 83.4277 34.1889 84.3919 35.252C85.3808 36.2903 86.6169 36.8095 88.1003 36.8095ZM111.786 20.1588C114.233 20.1588 116.211 20.9376 117.719 22.4951C119.227 24.0279 119.981 26.1788 119.981 28.9477V41H114.789V29.6523C114.789 28.0206 114.382 26.7721 113.566 25.9068C112.75 25.0168 111.637 24.5718 110.228 24.5718C108.794 24.5718 107.657 25.0168 106.816 25.9068C106.001 26.7721 105.593 28.0206 105.593 29.6523V41H100.401V20.4555H105.593V23.0143C106.285 22.1243 107.163 21.432 108.226 20.9376C109.313 20.4184 110.5 20.1588 111.786 20.1588ZM128.738 24.7201V34.6586C128.738 35.3509 128.899 35.8577 129.22 36.1791C129.566 36.4758 130.135 36.6241 130.926 36.6241H133.336V41H130.073C125.697 41 123.509 38.8739 123.509 34.6216V24.7201H121.062V20.4555H123.509V15.375H128.738V20.4555H133.336V24.7201H128.738ZM140.037 23.6447C140.705 22.5569 141.57 21.704 142.633 21.0859C143.721 20.4678 144.957 20.1588 146.342 20.1588V25.6101H144.969C143.338 25.6101 142.102 25.9934 141.261 26.7598C140.445 27.5262 140.037 28.8612 140.037 30.7648V41H134.845V20.4555H140.037V23.6447ZM156.736 41.3338C154.758 41.3338 152.978 40.9011 151.396 40.0358C149.814 39.1458 148.565 37.8973 147.65 36.2903C146.76 34.6834 146.315 32.8292 146.315 30.7277C146.315 28.6263 146.773 26.7721 147.688 25.1651C148.627 23.5582 149.9 22.322 151.507 21.4567C153.114 20.5667 154.907 20.1217 156.884 20.1217C158.862 20.1217 160.655 20.5667 162.262 21.4567C163.869 22.322 165.129 23.5582 166.044 25.1651C166.984 26.7721 167.453 28.6263 167.453 30.7277C167.453 32.8292 166.971 34.6834 166.007 36.2903C165.068 37.8973 163.782 39.1458 162.15 40.0358C160.543 40.9011 158.739 41.3338 156.736 41.3338ZM156.736 36.8095C157.676 36.8095 158.553 36.587 159.369 36.142C160.21 35.6723 160.877 34.98 161.372 34.0653C161.866 33.1506 162.113 32.038 162.113 30.7277C162.113 28.7746 161.594 27.2789 160.556 26.2406C159.542 25.1775 158.294 24.646 156.81 24.646C155.327 24.646 154.078 25.1775 153.065 26.2406C152.076 27.2789 151.581 28.7746 151.581 30.7277C151.581 32.6808 152.063 34.1889 153.028 35.252C154.017 36.2903 155.253 36.8095 156.736 36.8095ZM174.228 13.5579V41H169.037V13.5579H174.228ZM196.231 30.2827C196.231 31.0244 196.182 31.6919 196.083 32.2853H181.064C181.187 33.7686 181.707 34.9306 182.621 35.7712C183.536 36.6117 184.661 37.032 185.996 37.032C187.924 37.032 189.296 36.2038 190.112 34.5474H195.712C195.119 36.5252 193.981 38.1569 192.3 39.4425C190.619 40.7033 188.555 41.3338 186.107 41.3338C184.129 41.3338 182.349 40.9011 180.767 40.0358C179.21 39.1458 177.986 37.8973 177.096 36.2903C176.23 34.6834 175.798 32.8292 175.798 30.7277C175.798 28.6016 176.23 26.735 177.096 25.1281C177.961 23.5211 179.172 22.285 180.73 21.4197C182.287 20.5544 184.08 20.1217 186.107 20.1217C188.06 20.1217 189.803 20.542 191.336 21.3826C192.894 22.2231 194.093 23.4222 194.933 24.9797C195.798 26.5125 196.231 28.2802 196.231 30.2827ZM190.854 28.7994C190.829 27.4643 190.347 26.4013 189.408 25.6101C188.468 24.7943 187.319 24.3864 185.959 24.3864C184.673 24.3864 183.585 24.7819 182.695 25.5731C181.83 26.3395 181.299 27.4149 181.101 28.7994H190.854ZM203.072 30.6536C203.072 28.5769 203.48 26.735 204.296 25.1281C205.136 23.5211 206.273 22.285 207.707 21.4197C209.141 20.5544 210.736 20.1217 212.491 20.1217C213.826 20.1217 215.099 20.4184 216.311 21.0117C217.522 21.5804 218.486 22.3468 219.203 23.3109V13.5579H224.469V41H219.203V37.9591C218.561 38.9727 217.658 39.7886 216.496 40.4067C215.334 41.0247 213.987 41.3338 212.454 41.3338C210.724 41.3338 209.141 40.8887 207.707 39.9987C206.273 39.1087 205.136 37.8602 204.296 36.2533C203.48 34.6216 203.072 32.755 203.072 30.6536ZM219.241 30.7277C219.241 29.4669 218.993 28.3914 218.499 27.5014C218.004 26.5867 217.337 25.8945 216.496 25.4247C215.656 24.9303 214.753 24.683 213.789 24.683C212.825 24.683 211.935 24.9179 211.119 25.3876C210.303 25.8574 209.636 26.5496 209.117 27.4643C208.622 28.3544 208.375 29.4174 208.375 30.6536C208.375 31.8897 208.622 32.9775 209.117 33.917C209.636 34.8317 210.303 35.5363 211.119 36.0307C211.96 36.5252 212.85 36.7724 213.789 36.7724C214.753 36.7724 215.656 36.5376 216.496 36.0678C217.337 35.5734 218.004 34.8811 218.499 33.9911C218.993 33.0764 219.241 31.9886 219.241 30.7277ZM246.413 30.2827C246.413 31.0244 246.364 31.6919 246.265 32.2853H231.246C231.369 33.7686 231.889 34.9306 232.803 35.7712C233.718 36.6117 234.843 37.032 236.178 37.032C238.106 37.032 239.479 36.2038 240.294 34.5474H245.894C245.301 36.5252 244.163 38.1569 242.482 39.4425C240.801 40.7033 238.737 41.3338 236.289 41.3338C234.311 41.3338 232.531 40.9011 230.949 40.0358C229.392 39.1458 228.168 37.8973 227.278 36.2903C226.413 34.6834 225.98 32.8292 225.98 30.7277C225.98 28.6016 226.413 26.735 227.278 25.1281C228.143 23.5211 229.355 22.285 230.912 21.4197C232.47 20.5544 234.262 20.1217 236.289 20.1217C238.242 20.1217 239.985 20.542 241.518 21.3826C243.076 22.2231 244.275 23.4222 245.115 24.9797C245.981 26.5125 246.413 28.2802 246.413 30.2827ZM241.036 28.7994C241.011 27.4643 240.529 26.4013 239.59 25.6101C238.65 24.7943 237.501 24.3864 236.141 24.3864C234.855 24.3864 233.768 24.7819 232.878 25.5731C232.012 26.3395 231.481 27.4149 231.283 28.7994H241.036ZM253.328 28.0206C253.328 25.4742 253.897 23.1997 255.034 21.1972C256.196 19.1699 257.766 17.6 259.744 16.4875C261.746 15.3502 263.984 14.7816 266.456 14.7816C269.349 14.7816 271.883 15.5233 274.058 17.0067C276.234 18.49 277.754 20.542 278.62 23.1626H272.649C272.056 21.9265 271.215 20.9994 270.127 20.3813C269.064 19.7632 267.828 19.4542 266.419 19.4542C264.911 19.4542 263.563 19.8127 262.377 20.5296C261.215 21.2219 260.3 22.2108 259.633 23.4964C258.99 24.7819 258.668 26.29 258.668 28.0206C258.668 29.7265 258.99 31.2346 259.633 32.5449C260.3 33.8304 261.215 34.8317 262.377 35.5487C263.563 36.2409 264.911 36.587 266.419 36.587C267.828 36.587 269.064 36.278 270.127 35.6599C271.215 35.0171 272.056 34.0777 272.649 32.8415H278.62C277.754 35.4868 276.234 37.5512 274.058 39.0345C271.907 40.4932 269.373 41.2225 266.456 41.2225C263.984 41.2225 261.746 40.6662 259.744 39.5537C257.766 38.4165 256.196 36.8466 255.034 34.8441C253.897 32.8415 253.328 30.567 253.328 28.0206ZM289.952 41.3338C287.974 41.3338 286.194 40.9011 284.611 40.0358C283.029 39.1458 281.781 37.8973 280.866 36.2903C279.976 34.6834 279.531 32.8292 279.531 30.7277C279.531 28.6263 279.988 26.7721 280.903 25.1651C281.843 23.5582 283.116 22.322 284.723 21.4567C286.33 20.5667 288.122 20.1217 290.1 20.1217C292.078 20.1217 293.87 20.5667 295.477 21.4567C297.084 22.322 298.345 23.5582 299.26 25.1651C300.199 26.7721 300.669 28.6263 300.669 30.7277C300.669 32.8292 300.187 34.6834 299.223 36.2903C298.283 37.8973 296.998 39.1458 295.366 40.0358C293.759 40.9011 291.954 41.3338 289.952 41.3338ZM289.952 36.8095C290.891 36.8095 291.769 36.587 292.585 36.142C293.425 35.6723 294.093 34.98 294.587 34.0653C295.081 33.1506 295.329 32.038 295.329 30.7277C295.329 28.7746 294.81 27.2789 293.771 26.2406C292.758 25.1775 291.509 24.646 290.026 24.646C288.542 24.646 287.294 25.1775 286.28 26.2406C285.291 27.2789 284.797 28.7746 284.797 30.7277C284.797 32.6808 285.279 34.1889 286.243 35.252C287.232 36.2903 288.468 36.8095 289.952 36.8095ZM313.637 20.1588C316.084 20.1588 318.062 20.9376 319.57 22.4951C321.078 24.0279 321.832 26.1788 321.832 28.9477V41H316.641V29.6523C316.641 28.0206 316.233 26.7721 315.417 25.9068C314.601 25.0168 313.489 24.5718 312.079 24.5718C310.645 24.5718 309.508 25.0168 308.668 25.9068C307.852 26.7721 307.444 28.0206 307.444 29.6523V41H302.252V20.4555H307.444V23.0143C308.136 22.1243 309.014 21.432 310.077 20.9376C311.165 20.4184 312.351 20.1588 313.637 20.1588ZM330.589 24.7201V34.6586C330.589 35.3509 330.75 35.8577 331.071 36.1791C331.417 36.4758 331.986 36.6241 332.777 36.6241H335.188V41H331.924C327.548 41 325.36 38.8739 325.36 34.6216V24.7201H322.913V20.4555H325.36V15.375H330.589V20.4555H335.188V24.7201H330.589ZM335.362 30.6536C335.362 28.5769 335.77 26.735 336.586 25.1281C337.426 23.5211 338.551 22.285 339.96 21.4197C341.394 20.5544 342.989 20.1217 344.744 20.1217C346.277 20.1217 347.612 20.4308 348.749 21.0488C349.911 21.6669 350.838 22.4456 351.53 23.3851V20.4555H356.759V41H351.53V37.9962C350.863 38.9604 349.936 39.7639 348.749 40.4067C347.587 41.0247 346.24 41.3338 344.707 41.3338C342.976 41.3338 341.394 40.8887 339.96 39.9987C338.551 39.1087 337.426 37.8602 336.586 36.2533C335.77 34.6216 335.362 32.755 335.362 30.6536ZM351.53 30.7277C351.53 29.4669 351.283 28.3914 350.789 27.5014C350.294 26.5867 349.627 25.8945 348.786 25.4247C347.946 24.9303 347.043 24.683 346.079 24.683C345.115 24.683 344.225 24.9179 343.409 25.3876C342.593 25.8574 341.926 26.5496 341.406 27.4643C340.912 28.3544 340.665 29.4174 340.665 30.6536C340.665 31.8897 340.912 32.9775 341.406 33.917C341.926 34.8317 342.593 35.5363 343.409 36.0307C344.25 36.5252 345.14 36.7724 346.079 36.7724C347.043 36.7724 347.946 36.5376 348.786 36.0678C349.627 35.5734 350.294 34.8811 350.789 33.9911C351.283 33.0764 351.53 31.9886 351.53 30.7277ZM365.65 24.7201V34.6586C365.65 35.3509 365.81 35.8577 366.132 36.1791C366.478 36.4758 367.046 36.6241 367.837 36.6241H370.248V41H366.985C362.609 41 360.421 38.8739 360.421 34.6216V24.7201H357.973V20.4555H360.421V15.375H365.65V20.4555H370.248V24.7201H365.65ZM380.88 41.3338C378.902 41.3338 377.122 40.9011 375.54 40.0358C373.957 39.1458 372.709 37.8973 371.794 36.2903C370.904 34.6834 370.459 32.8292 370.459 30.7277C370.459 28.6263 370.916 26.7721 371.831 25.1651C372.771 23.5582 374.044 22.322 375.651 21.4567C377.258 20.5667 379.05 20.1217 381.028 20.1217C383.006 20.1217 384.798 20.5667 386.405 21.4567C388.012 22.322 389.273 23.5582 390.188 25.1651C391.127 26.7721 391.597 28.6263 391.597 30.7277C391.597 32.8292 391.115 34.6834 390.151 36.2903C389.211 37.8973 387.926 39.1458 386.294 40.0358C384.687 40.9011 382.882 41.3338 380.88 41.3338ZM380.88 36.8095C381.819 36.8095 382.697 36.587 383.513 36.142C384.353 35.6723 385.021 34.98 385.515 34.0653C386.01 33.1506 386.257 32.038 386.257 30.7277C386.257 28.7746 385.738 27.2789 384.699 26.2406C383.686 25.1775 382.437 24.646 380.954 24.646C379.471 24.646 378.222 25.1775 377.208 26.2406C376.22 27.2789 375.725 28.7746 375.725 30.7277C375.725 32.6808 376.207 34.1889 377.171 35.252C378.16 36.2903 379.396 36.8095 380.88 36.8095ZM401.042 41.3338C399.361 41.3338 397.853 41.0371 396.518 40.4437C395.183 39.8257 394.12 38.9975 393.329 37.9591C392.562 36.9208 392.142 35.7712 392.068 34.5103H397.297C397.396 35.3014 397.779 35.9566 398.446 36.4758C399.138 36.9949 399.991 37.2545 401.005 37.2545C401.994 37.2545 402.76 37.0567 403.304 36.6612C403.873 36.2656 404.157 35.7588 404.157 35.1407C404.157 34.4732 403.811 33.9788 403.119 33.6574C402.451 33.3113 401.376 32.9404 399.893 32.5449C398.36 32.174 397.099 31.7908 396.11 31.3952C395.146 30.9997 394.305 30.394 393.588 29.5781C392.896 28.7623 392.55 27.6621 392.55 26.2777C392.55 25.1404 392.871 24.1021 393.514 23.1626C394.182 22.2231 395.121 21.4815 396.332 20.9376C397.569 20.3937 399.015 20.1217 400.671 20.1217C403.119 20.1217 405.072 20.7398 406.531 21.9759C407.989 23.1873 408.793 24.8314 408.941 26.9081H403.972C403.898 26.0922 403.551 25.4495 402.933 24.9797C402.34 24.4853 401.537 24.238 400.523 24.238C399.583 24.238 398.854 24.4111 398.335 24.7572C397.841 25.1033 397.593 25.5854 397.593 26.2035C397.593 26.8957 397.939 27.4273 398.632 27.7981C399.324 28.1442 400.399 28.5027 401.858 28.8735C403.341 29.2444 404.565 29.6276 405.529 30.0231C406.493 30.4187 407.322 31.0368 408.014 31.8773C408.731 32.6932 409.102 33.781 409.126 35.1407C409.126 36.3274 408.793 37.3905 408.125 38.33C407.482 39.2694 406.543 40.0111 405.307 40.555C404.095 41.0742 402.674 41.3338 401.042 41.3338Z" fill="white"/>
<path d="M32.7835 27.9929C33.7378 27.9929 34.5182 28.7661 34.4228 29.7156C34.0966 32.965 32.855 36.0552 30.8422 38.6269C28.8295 41.1987 26.1282 43.1464 23.0523 44.2437C19.9764 45.3411 16.6523 45.543 13.4662 44.8259C10.2801 44.1089 7.36297 42.5025 5.05373 40.1932C2.7445 37.884 1.13802 34.9668 0.42101 31.7808C-0.296002 28.5947 -0.0941053 25.2705 1.00323 22.1947C2.10058 19.1188 4.0483 16.4175 6.62004 14.4047C9.19178 12.3919 12.2819 11.1503 15.5314 10.8242C16.4797 10.7275 17.254 11.5104 17.254 12.4623V26.2666C17.254 27.221 18.0272 27.9929 18.9803 27.9929H32.7835Z" fill="white"/>
<path d="M37.8757 15.7798C36.9367 14.8407 35.663 14.3132 34.335 14.3132H25.99C24.662 14.3132 23.3883 14.8407 22.4492 15.7798C21.5102 16.7189 20.9826 17.9925 20.9826 19.3206C20.9826 20.6486 21.5102 21.9223 22.4492 22.8614C23.3883 23.8005 24.662 24.328 25.99 24.328H34.335C35.663 24.328 36.9367 23.8005 37.8757 22.8614C38.8148 21.9223 39.3424 20.6486 39.3424 19.3206C39.3424 17.9925 38.8148 16.7189 37.8757 15.7798Z" fill="url(#paint0_linear_1_138)"/>
<path d="M37.8757 15.7798C36.9367 14.8407 35.663 14.3132 34.335 14.3132H25.99C24.662 14.3132 23.3883 14.8407 22.4492 15.7798C21.5102 16.7189 20.9826 17.9925 20.9826 19.3206C20.9826 20.6486 21.5102 21.9223 22.4492 22.8614C23.3883 23.8005 24.662 24.328 25.99 24.328H34.335C35.663 24.328 36.9367 23.8005 37.8757 22.8614C38.8148 21.9223 39.3424 20.6486 39.3424 19.3206C39.3424 17.9925 38.8148 16.7189 37.8757 15.7798Z" fill="url(#paint1_linear_1_138)"/>
<path d="M37.8757 15.7798C36.9367 14.8407 35.663 14.3132 34.335 14.3132H25.99C24.662 14.3132 23.3883 14.8407 22.4492 15.7798C21.5102 16.7189 20.9826 17.9925 20.9826 19.3206C20.9826 20.6486 21.5102 21.9223 22.4492 22.8614C23.3883 23.8005 24.662 24.328 25.99 24.328H34.335C35.663 24.328 36.9367 23.8005 37.8757 22.8614C38.8148 21.9223 39.3424 20.6486 39.3424 19.3206C39.3424 17.9925 38.8148 16.7189 37.8757 15.7798Z" fill="white"/>
<defs>
<linearGradient id="paint0_linear_1_138" x1="-57.3844" y1="-3.71824" x2="81.6782" y2="-3.71824" gradientUnits="userSpaceOnUse">
<stop stop-color="#64C2DB"/>
<stop offset="0.307" stop-color="#7476ED"/>
<stop offset="0.604" stop-color="#C994DF"/>
<stop offset="1" stop-color="#E56F8C"/>
</linearGradient>
<linearGradient id="paint1_linear_1_138" x1="20.9823" y1="19.9352" x2="97.6394" y2="19.9352" gradientUnits="userSpaceOnUse">
<stop stop-color="#64C2DB"/>
<stop offset="0.307" stop-color="#7476ED"/>
<stop offset="0.604" stop-color="#C994DF"/>
<stop offset="1" stop-color="#E56F8C"/>
</linearGradient>
</defs>
</svg>
