<svg width="376" height="51" viewBox="0 0 376 51" fill="none" xmlns="http://www.w3.org/2000/svg">
<path d="M47.0643 25.1332C47.0643 22.8051 47.5842 20.7256 48.6239 18.8947C49.6863 17.0412 51.1216 15.6059 52.9299 14.5887C54.7608 13.549 56.8064 13.0291 59.0667 13.0291C61.7113 13.0291 64.0282 13.7072 66.0173 15.0634C68.0064 16.4196 69.3965 18.2957 70.1876 20.6916H64.7289C64.1864 19.5615 63.4179 18.7138 62.4233 18.1488C61.4514 17.5837 60.3212 17.3011 59.0328 17.3011C57.654 17.3011 56.4221 17.6289 55.3371 18.2844C54.2748 18.9173 53.4385 19.8214 52.8282 20.9968C52.2405 22.1722 51.9466 23.551 51.9466 25.1332C51.9466 26.6928 52.2405 28.0717 52.8282 29.2696C53.4385 30.445 54.2748 31.3605 55.3371 32.016C56.4221 32.6488 57.654 32.9653 59.0328 32.9653C60.3212 32.9653 61.4514 32.6828 62.4233 32.1177C63.4179 31.53 64.1864 30.671 64.7289 29.5409H70.1876C69.3965 31.9594 68.0064 33.8468 66.0173 35.203C64.0508 36.5366 61.7339 37.2034 59.0667 37.2034C56.8064 37.2034 54.7608 36.6949 52.9299 35.6777C51.1216 34.6379 49.6863 33.2026 48.6239 31.3718C47.5842 29.5409 47.0643 27.4614 47.0643 25.1332ZM80.5482 37.3051C78.74 37.3051 77.1125 36.9096 75.6659 36.1185C74.2193 35.3047 73.0778 34.1633 72.2415 32.6941C71.4278 31.2248 71.0209 29.5296 71.0209 27.6083C71.0209 25.687 71.4391 23.9917 72.2754 22.5225C73.1343 21.0533 74.2984 19.9231 75.7676 19.132C77.2368 18.3183 78.8756 17.9114 80.6839 17.9114C82.4921 17.9114 84.1309 18.3183 85.6001 19.132C87.0693 19.9231 88.2221 21.0533 89.0584 22.5225C89.9173 23.9917 90.3468 25.687 90.3468 27.6083C90.3468 29.5296 89.906 31.2248 89.0245 32.6941C88.1656 34.1633 86.9902 35.3047 85.4984 36.1185C84.0292 36.9096 82.3791 37.3051 80.5482 37.3051ZM80.5482 33.1687C81.4072 33.1687 82.2096 32.9653 82.9555 32.5584C83.724 32.129 84.3343 31.4961 84.7864 30.6597C85.2384 29.8234 85.4645 28.8063 85.4645 27.6083C85.4645 25.8226 84.9898 24.4551 84.0405 23.5058C83.1137 22.5338 81.9722 22.0479 80.616 22.0479C79.2598 22.0479 78.1184 22.5338 77.1916 23.5058C76.2875 24.4551 75.8354 25.8226 75.8354 27.6083C75.8354 29.394 76.2762 30.7728 77.1577 31.7447C78.0619 32.6941 79.192 33.1687 80.5482 33.1687ZM102.203 17.9453C104.441 17.9453 106.249 18.6573 107.628 20.0814C109.007 21.4828 109.696 23.4493 109.696 25.9808V37H104.95V26.625C104.95 25.1332 104.577 23.9917 103.831 23.2006C103.085 22.3869 102.068 21.98 100.779 21.98C99.4683 21.98 98.4285 22.3869 97.66 23.2006C96.9141 23.9917 96.5411 25.1332 96.5411 26.625V37H91.7944V18.2166H96.5411V20.556C97.174 19.7423 97.9764 19.1094 98.9484 18.6573C99.9429 18.1827 101.028 17.9453 102.203 17.9453ZM117.702 22.1157V31.2022C117.702 31.8351 117.849 32.2985 118.143 32.5923C118.46 32.8636 118.979 32.9992 119.703 32.9992H121.907V37H118.923C114.922 37 112.922 35.0561 112.922 31.1683V22.1157H110.684V18.2166H112.922V13.5716H117.702V18.2166H121.907V22.1157H117.702ZM128.033 21.1324C128.643 20.1379 129.435 19.358 130.406 18.793C131.401 18.2279 132.531 17.9453 133.797 17.9453V22.9294H132.542C131.051 22.9294 129.921 23.2797 129.152 23.9804C128.406 24.6811 128.033 25.9017 128.033 27.6422V37H123.286V18.2166H128.033V21.1324ZM143.3 37.3051C141.492 37.3051 139.865 36.9096 138.418 36.1185C136.972 35.3047 135.83 34.1633 134.994 32.6941C134.18 31.2248 133.773 29.5296 133.773 27.6083C133.773 25.687 134.191 23.9917 135.028 22.5225C135.887 21.0533 137.051 19.9231 138.52 19.132C139.989 18.3183 141.628 17.9114 143.436 17.9114C145.244 17.9114 146.883 18.3183 148.352 19.132C149.822 19.9231 150.974 21.0533 151.811 22.5225C152.67 23.9917 153.099 25.687 153.099 27.6083C153.099 29.5296 152.658 31.2248 151.777 32.6941C150.918 34.1633 149.742 35.3047 148.251 36.1185C146.781 36.9096 145.131 37.3051 143.3 37.3051ZM143.3 33.1687C144.159 33.1687 144.962 32.9653 145.708 32.5584C146.476 32.129 147.087 31.4961 147.539 30.6597C147.991 29.8234 148.217 28.8063 148.217 27.6083C148.217 25.8226 147.742 24.4551 146.793 23.5058C145.866 22.5338 144.724 22.0479 143.368 22.0479C142.012 22.0479 140.871 22.5338 139.944 23.5058C139.04 24.4551 138.588 25.8226 138.588 27.6083C138.588 29.394 139.028 30.7728 139.91 31.7447C140.814 32.6941 141.944 33.1687 143.3 33.1687ZM159.293 11.9102V37H154.547V11.9102H159.293ZM179.41 27.2014C179.41 27.8795 179.365 28.4898 179.274 29.0323H165.543C165.656 30.3885 166.13 31.4509 166.967 32.2194C167.803 32.9879 168.832 33.3722 170.052 33.3722C171.815 33.3722 173.07 32.6149 173.816 31.1005H178.935C178.393 32.9088 177.353 34.4006 175.816 35.576C174.279 36.7288 172.392 37.3051 170.154 37.3051C168.346 37.3051 166.718 36.9096 165.272 36.1185C163.848 35.3047 162.729 34.1633 161.915 32.6941C161.124 31.2248 160.728 29.5296 160.728 27.6083C160.728 25.6644 161.124 23.9578 161.915 22.4886C162.706 21.0194 163.814 19.8892 165.238 19.0981C166.662 18.307 168.3 17.9114 170.154 17.9114C171.94 17.9114 173.533 18.2957 174.934 19.0642C176.358 19.8327 177.455 20.929 178.223 22.353C179.014 23.7544 179.41 25.3706 179.41 27.2014ZM174.494 25.8452C174.471 24.6246 174.03 23.6527 173.171 22.9294C172.312 22.1835 171.261 21.8105 170.018 21.8105C168.843 21.8105 167.848 22.1722 167.035 22.8955C166.243 23.5962 165.757 24.5794 165.577 25.8452H174.494ZM185.664 27.5405C185.664 25.6418 186.037 23.9578 186.783 22.4886C187.552 21.0194 188.592 19.8892 189.903 19.0981C191.214 18.307 192.671 17.9114 194.276 17.9114C195.497 17.9114 196.661 18.1827 197.768 18.7252C198.876 19.245 199.758 19.9457 200.413 20.8273V11.9102H205.228V37H200.413V34.2198C199.825 35.1465 199 35.8924 197.938 36.4575C196.876 37.0226 195.644 37.3051 194.242 37.3051C192.66 37.3051 191.214 36.8983 189.903 36.0846C188.592 35.2708 187.552 34.1294 186.783 32.6601C186.037 31.1683 185.664 29.4618 185.664 27.5405ZM200.447 27.6083C200.447 26.4555 200.221 25.4723 199.769 24.6585C199.317 23.8222 198.707 23.1893 197.938 22.7599C197.17 22.3078 196.344 22.0818 195.463 22.0818C194.581 22.0818 193.768 22.2965 193.022 22.726C192.276 23.1554 191.666 23.7883 191.191 24.6246C190.739 25.4384 190.513 26.4103 190.513 27.5405C190.513 28.6706 190.739 29.6652 191.191 30.5241C191.666 31.3605 192.276 32.0046 193.022 32.4567C193.79 32.9088 194.604 33.1348 195.463 33.1348C196.344 33.1348 197.17 32.9201 197.938 32.4906C198.707 32.0386 199.317 31.4057 199.769 30.5919C200.221 29.7556 200.447 28.7611 200.447 27.6083ZM225.29 27.2014C225.29 27.8795 225.245 28.4898 225.155 29.0323H211.423C211.536 30.3885 212.011 31.4509 212.847 32.2194C213.684 32.9879 214.712 33.3722 215.933 33.3722C217.696 33.3722 218.95 32.6149 219.696 31.1005H224.816C224.273 32.9088 223.234 34.4006 221.696 35.576C220.159 36.7288 218.272 37.3051 216.034 37.3051C214.226 37.3051 212.599 36.9096 211.152 36.1185C209.728 35.3047 208.609 34.1633 207.795 32.6941C207.004 31.2248 206.609 29.5296 206.609 27.6083C206.609 25.6644 207.004 23.9578 207.795 22.4886C208.587 21.0194 209.694 19.8892 211.118 19.0981C212.542 18.307 214.181 17.9114 216.034 17.9114C217.82 17.9114 219.414 18.2957 220.815 19.0642C222.239 19.8327 223.335 20.929 224.104 22.353C224.895 23.7544 225.29 25.3706 225.29 27.2014ZM220.374 25.8452C220.352 24.6246 219.911 23.6527 219.052 22.9294C218.193 22.1835 217.142 21.8105 215.899 21.8105C214.723 21.8105 213.729 22.1722 212.915 22.8955C212.124 23.5962 211.638 24.5794 211.457 25.8452H220.374ZM231.613 25.1332C231.613 22.8051 232.133 20.7256 233.172 18.8947C234.235 17.0412 235.67 15.6059 237.478 14.5887C239.309 13.549 241.355 13.0291 243.615 13.0291C246.26 13.0291 248.577 13.7072 250.566 15.0634C252.555 16.4196 253.945 18.2957 254.736 20.6916H249.277C248.735 19.5615 247.966 18.7138 246.972 18.1488C246 17.5837 244.87 17.3011 243.581 17.3011C242.202 17.3011 240.97 17.6289 239.886 18.2844C238.823 18.9173 237.987 19.8214 237.377 20.9968C236.789 22.1722 236.495 23.551 236.495 25.1332C236.495 26.6928 236.789 28.0717 237.377 29.2696C237.987 30.445 238.823 31.3605 239.886 32.016C240.97 32.6488 242.202 32.9653 243.581 32.9653C244.87 32.9653 246 32.6828 246.972 32.1177C247.966 31.53 248.735 30.671 249.277 29.5409H254.736C253.945 31.9594 252.555 33.8468 250.566 35.203C248.599 36.5366 246.282 37.2034 243.615 37.2034C241.355 37.2034 239.309 36.6949 237.478 35.6777C235.67 34.6379 234.235 33.2026 233.172 31.3718C232.133 29.5409 231.613 27.4614 231.613 25.1332ZM265.097 37.3051C263.288 37.3051 261.661 36.9096 260.214 36.1185C258.768 35.3047 257.626 34.1633 256.79 32.6941C255.976 31.2248 255.569 29.5296 255.569 27.6083C255.569 25.687 255.987 23.9917 256.824 22.5225C257.683 21.0533 258.847 19.9231 260.316 19.132C261.785 18.3183 263.424 17.9114 265.232 17.9114C267.04 17.9114 268.679 18.3183 270.148 19.132C271.618 19.9231 272.77 21.0533 273.607 22.5225C274.466 23.9917 274.895 25.687 274.895 27.6083C274.895 29.5296 274.454 31.2248 273.573 32.6941C272.714 34.1633 271.539 35.3047 270.047 36.1185C268.578 36.9096 266.927 37.3051 265.097 37.3051ZM265.097 33.1687C265.956 33.1687 266.758 32.9653 267.504 32.5584C268.272 32.129 268.883 31.4961 269.335 30.6597C269.787 29.8234 270.013 28.8063 270.013 27.6083C270.013 25.8226 269.538 24.4551 268.589 23.5058C267.662 22.5338 266.521 22.0479 265.164 22.0479C263.808 22.0479 262.667 22.5338 261.74 23.5058C260.836 24.4551 260.384 25.8226 260.384 27.6083C260.384 29.394 260.825 30.7728 261.706 31.7447C262.61 32.6941 263.74 33.1687 265.097 33.1687ZM286.752 17.9453C288.989 17.9453 290.798 18.6573 292.176 20.0814C293.555 21.4828 294.245 23.4493 294.245 25.9808V37H289.498V26.625C289.498 25.1332 289.125 23.9917 288.379 23.2006C287.633 22.3869 286.616 21.98 285.328 21.98C284.017 21.98 282.977 22.3869 282.208 23.2006C281.462 23.9917 281.089 25.1332 281.089 26.625V37H276.343V18.2166H281.089V20.556C281.722 19.7423 282.525 19.1094 283.497 18.6573C284.491 18.1827 285.576 17.9453 286.752 17.9453ZM302.251 22.1157V31.2022C302.251 31.8351 302.398 32.2985 302.692 32.5923C303.008 32.8636 303.528 32.9992 304.251 32.9992H306.455V37H303.471C299.471 37 297.47 35.0561 297.47 31.1683V22.1157H295.232V18.2166H297.47V13.5716H302.251V18.2166H306.455V22.1157H302.251ZM306.614 27.5405C306.614 25.6418 306.987 23.9578 307.733 22.4886C308.502 21.0194 309.53 19.8892 310.818 19.0981C312.129 18.307 313.587 17.9114 315.192 17.9114C316.594 17.9114 317.814 18.194 318.854 18.7591C319.916 19.3241 320.764 20.0361 321.397 20.8951V18.2166H326.177V37H321.397V34.2537C320.787 35.1352 319.939 35.8698 318.854 36.4575C317.792 37.0226 316.56 37.3051 315.158 37.3051C313.576 37.3051 312.129 36.8983 310.818 36.0846C309.53 35.2708 308.502 34.1294 307.733 32.6601C306.987 31.1683 306.614 29.4618 306.614 27.5405ZM321.397 27.6083C321.397 26.4555 321.171 25.4723 320.719 24.6585C320.267 23.8222 319.656 23.1893 318.888 22.7599C318.119 22.3078 317.294 22.0818 316.413 22.0818C315.531 22.0818 314.718 22.2965 313.972 22.726C313.226 23.1554 312.615 23.7883 312.141 24.6246C311.689 25.4384 311.463 26.4103 311.463 27.5405C311.463 28.6706 311.689 29.6652 312.141 30.5241C312.615 31.3605 313.226 32.0046 313.972 32.4567C314.74 32.9088 315.554 33.1348 316.413 33.1348C317.294 33.1348 318.119 32.9201 318.888 32.4906C319.656 32.0386 320.267 31.4057 320.719 30.5919C321.171 29.7556 321.397 28.7611 321.397 27.6083ZM334.306 22.1157V31.2022C334.306 31.8351 334.453 32.2985 334.746 32.5923C335.063 32.8636 335.583 32.9992 336.306 32.9992H338.51V37H335.526C331.525 37 329.525 35.0561 329.525 31.1683V22.1157H327.287V18.2166H329.525V13.5716H334.306V18.2166H338.51V22.1157H334.306ZM348.23 37.3051C346.422 37.3051 344.795 36.9096 343.348 36.1185C341.901 35.3047 340.76 34.1633 339.924 32.6941C339.11 31.2248 338.703 29.5296 338.703 27.6083C338.703 25.687 339.121 23.9917 339.957 22.5225C340.816 21.0533 341.98 19.9231 343.45 19.132C344.919 18.3183 346.558 17.9114 348.366 17.9114C350.174 17.9114 351.813 18.3183 353.282 19.132C354.751 19.9231 355.904 21.0533 356.74 22.5225C357.599 23.9917 358.029 25.687 358.029 27.6083C358.029 29.5296 357.588 31.2248 356.707 32.6941C355.848 34.1633 354.672 35.3047 353.18 36.1185C351.711 36.9096 350.061 37.3051 348.23 37.3051ZM348.23 33.1687C349.089 33.1687 349.892 32.9653 350.638 32.5584C351.406 32.129 352.016 31.4961 352.468 30.6597C352.921 29.8234 353.147 28.8063 353.147 27.6083C353.147 25.8226 352.672 24.4551 351.723 23.5058C350.796 22.5338 349.654 22.0479 348.298 22.0479C346.942 22.0479 345.8 22.5338 344.874 23.5058C343.97 24.4551 343.517 25.8226 343.517 27.6083C343.517 29.394 343.958 30.7728 344.84 31.7447C345.744 32.6941 346.874 33.1687 348.23 33.1687ZM366.664 37.3051C365.127 37.3051 363.749 37.0339 362.528 36.4914C361.307 35.9263 360.335 35.1691 359.612 34.2198C358.911 33.2704 358.527 32.2194 358.459 31.0666H363.24C363.33 31.7899 363.681 32.3889 364.291 32.8636C364.924 33.3382 365.704 33.5756 366.63 33.5756C367.535 33.5756 368.235 33.3948 368.733 33.0331C369.252 32.6714 369.512 32.2081 369.512 31.643C369.512 31.0327 369.196 30.5806 368.563 30.2868C367.953 29.9703 366.97 29.6313 365.613 29.2696C364.212 28.9306 363.059 28.5802 362.155 28.2186C361.273 27.8569 360.505 27.3031 359.849 26.5572C359.217 25.8113 358.9 24.8055 358.9 23.5397C358.9 22.4999 359.194 21.5506 359.782 20.6916C360.392 19.8327 361.251 19.1546 362.358 18.6573C363.489 18.1601 364.811 17.9114 366.325 17.9114C368.563 17.9114 370.349 18.4765 371.682 19.6067C373.016 20.7143 373.751 22.2174 373.886 24.1161H369.343C369.275 23.3701 368.959 22.7825 368.394 22.353C367.851 21.9009 367.116 21.6749 366.19 21.6749C365.331 21.6749 364.664 21.8331 364.189 22.1496C363.737 22.466 363.511 22.9068 363.511 23.4719C363.511 24.1048 363.828 24.5907 364.461 24.9298C365.093 25.2462 366.077 25.574 367.41 25.913C368.766 26.2521 369.885 26.6024 370.767 26.9641C371.648 27.3257 372.406 27.8908 373.039 28.6593C373.694 29.4053 374.033 30.3998 374.056 31.643C374.056 32.728 373.751 33.6999 373.14 34.5588C372.553 35.4178 371.694 36.0959 370.563 36.5931C369.456 37.0678 368.156 37.3051 366.664 37.3051Z" fill="#3F3F3F"/>
<path d="M29.9732 25.5934C30.8458 25.5934 31.5593 26.3002 31.472 27.1684C31.1738 30.1392 30.0387 32.9645 28.1984 35.3158C26.3582 37.6671 23.8884 39.4478 21.0762 40.4511C18.264 41.4544 15.2248 41.639 12.3119 40.9834C9.39891 40.3279 6.73181 38.8591 4.62052 36.7478C2.50924 34.6365 1.04047 31.9694 0.38492 29.0565C-0.270628 26.1435 -0.0860385 23.1043 0.917237 20.2921C1.92051 17.4799 3.70127 15.0102 6.05256 13.1699C8.40385 11.3297 11.2291 10.1945 14.2 9.89634C15.067 9.80798 15.775 10.5237 15.775 11.394V24.015C15.775 24.8876 16.4819 25.5934 17.3533 25.5934H29.9732Z" fill="#33A4BB"/>
<path d="M34.629 14.4272C33.7704 13.5686 32.6059 13.0863 31.3917 13.0863H23.7621C22.5479 13.0863 21.3834 13.5686 20.5248 14.4272C19.6663 15.2858 19.1839 16.4502 19.1839 17.6645C19.1839 18.8787 19.6663 20.0431 20.5248 20.9017C21.3834 21.7603 22.5479 22.2426 23.7621 22.2426H31.3917C32.6059 22.2426 33.7704 21.7603 34.629 20.9017C35.4875 20.0431 35.9699 18.8787 35.9699 17.6645C35.9699 16.4502 35.4875 15.2858 34.629 14.4272Z" fill="url(#paint0_linear_1_136)"/>
<path d="M34.629 14.4272C33.7704 13.5686 32.6059 13.0863 31.3917 13.0863H23.7621C22.5479 13.0863 21.3834 13.5686 20.5248 14.4272C19.6663 15.2858 19.1839 16.4502 19.1839 17.6645C19.1839 18.8787 19.6663 20.0431 20.5248 20.9017C21.3834 21.7603 22.5479 22.2426 23.7621 22.2426H31.3917C32.6059 22.2426 33.7704 21.7603 34.629 20.9017C35.4875 20.0431 35.9699 18.8787 35.9699 17.6645C35.9699 16.4502 35.4875 15.2858 34.629 14.4272Z" fill="url(#paint1_linear_1_136)"/>
<path d="M34.629 14.4272C33.7704 13.5686 32.6059 13.0863 31.3917 13.0863H23.7621C22.5479 13.0863 21.3834 13.5686 20.5248 14.4272C19.6663 15.2858 19.1839 16.4502 19.1839 17.6645C19.1839 18.8787 19.6663 20.0431 20.5248 20.9017C21.3834 21.7603 22.5479 22.2426 23.7621 22.2426H31.3917C32.6059 22.2426 33.7704 21.7603 34.629 20.9017C35.4875 20.0431 35.9699 18.8787 35.9699 17.6645C35.9699 16.4502 35.4875 15.2858 34.629 14.4272Z" fill="#33A4BB"/>
<defs>
<linearGradient id="paint0_linear_1_136" x1="-52.4654" y1="-3.39946" x2="74.6766" y2="-3.39946" gradientUnits="userSpaceOnUse">
<stop stop-color="#64C2DB"/>
<stop offset="0.307" stop-color="#7476ED"/>
<stop offset="0.604" stop-color="#C994DF"/>
<stop offset="1" stop-color="#E56F8C"/>
</linearGradient>
<linearGradient id="paint1_linear_1_136" x1="19.1837" y1="18.2264" x2="89.2696" y2="18.2264" gradientUnits="userSpaceOnUse">
<stop stop-color="#64C2DB"/>
<stop offset="0.307" stop-color="#7476ED"/>
<stop offset="0.604" stop-color="#C994DF"/>
<stop offset="1" stop-color="#E56F8C"/>
</linearGradient>
</defs>
</svg>
